#!OML:ASF I:\Actors\actors\Patient Classification 2\Patient 1\Session 1\actor1.ASF
:FULLY-SPECIFIED
:DEGREES
1072
root -0.536102 18.796 5.71161 2.31419 -7.01713 -1.69011
lowerback 13.8084 0.866651 1.5496
upperback 0.670785 1.59641 2.84993
thorax -7.08632 0.772417 1.83435
lowerneck 1.11133 -5.21798 1.30098
upperneck -2.41156 -7.21659 -8.81372
head -1.36499 -3.51671 -2.91912
rclavicle -4.47266e-015 5.56597e-015
rhumerus 28.3337 11.3682 -58.7894
rradius 130.953
rwrist 5.89857
rhand -36.2079 -33.8132
rfingers 7.12502
rthumb -9.31042 -63.5876
lclavicle -4.47266e-015 5.56597e-015
lhumerus -53.5557 -25.1957 105.658
lradius 112.398
lwrist -2.17964
lhand -11.5544 -34.0386
lfingers 7.12502
lthumb 14.4864 -4.56434
rfemur 0 0 0
rtibia 0
rfoot 0 0
rtoes 0
lfemur -7.04223 -0.425612 -16.3074
ltibia 24.1201
lfoot -23.2811 15.4725
ltoes -54.7487
1073
root -0.535974 18.795 5.72085 2.29934 -7.26075 -1.70028
lowerback 13.8544 0.806385 1.54998
upperback 0.671255 1.51813 2.85397
thorax -7.10992 0.734172 1.85353
lowerneck 1.08875 -5.26592 1.28086
upperneck -2.50212 -7.28811 -8.79246
head -1.39232 -3.55082 -2.90636
rclavicle 5.96354e-016 -6.36111e-015
rhumerus 28.4178 11.2648 -58.7826
rradius 130.709
rwrist 6.88921
rhand -35.9571 -34.1456
rfingers 7.12502
rthumb -9.06837 -63.9307
lclavicle 5.96354e-016 -6.36111e-015
lhumerus -53.5668 -25.1501 105.629
lradius 112.403
lwrist -2.28598
lhand -11.6226 -34.0303
lfingers 7.12502
lthumb 14.4207 -4.55127
rfemur 0 0 0
rtibia 0
rfoot 0 0
rtoes 0
lfemur -6.92003 -0.38822 -16.3226
ltibia 24.0653
lfoot -23.3918 15.6618
ltoes -54.7429
1074
root -0.536294 18.7943 5.72954 2.29993 -7.50988 -1.68706
lowerback 13.8447 0.758456 1.48663
upperback 0.68669 1.4459 2.8864
thorax -7.08878 0.701601 1.93827
lowerneck 1.14353 -5.33184 1.16181
upperneck -2.70996 -7.39461 -8.73171
head -1.46673 -3.59682 -2.85843
rclavicle -1.64991e-014 1.66979e-014
rhumerus 28.6261 11.0458 -58.743
rradius 130.84
rwrist 6.28957
rhand -34.8777 -34.3742
rfingers 7.12502
rthumb -8.02677 -64.2018
lclavicle -1.64991e-014 1.66979e-014
lhumerus -53.5035 -25.1035 105.614
lradius 112.41
lwrist -2.40429
lhand -11.5576 -34.0177
lfingers 7.12502
lthumb 14.4833 -4.54317
rfemur 0 0 0
rtibia 0
rfoot 0 0
rtoes 0
lfemur -6.82771 -0.238791 -16.3512
ltibia 24.0165
lfoot -23.446 15.7636
ltoes -54.8071
1075
root -0.536573 18.7951 5.739 2.38252 -7.73724 -1.63362
lowerback 13.7697 0.71273 1.41648
upperback 0.651695 1.37301 2.88604
thorax -7.08398 0.66853 1.99259
lowerneck 1.15799 -5.37338 1.02099
upperneck -2.83393 -7.45924 -8.61647
head -1.50078 -3.62554 -2.79121
rclavicle 3.27995e-015 -1.35174e-014
rhumerus 28.7455 10.9641 -58.6487
rradius 130.755
rwrist 6.45692
rhand -34.9083 -34.4504
rfingers 7.12502
rthumb -8.05631 -64.2768
lclavicle 3.27995e-015 -1.35174e-014
lhumerus -53.4443 -25.1127 105.611
lradius 112.369
lwrist -2.41541
lhand -11.5024 -34.0516
lfingers 7.12502
lthumb 14.5365 -4.58091
rfemur 0 0 0
rtibia 0
rfoot 0 0
rtoes 0
lfemur -6.83638 -0.0591189 -16.4195
ltibia 23.978
lfoot -23.464 15.8028
ltoes -54.8449
1076
root -0.537824 18.7957 5.74853 2.45927 -7.96415 -1.60932
lowerback 13.7439 0.662646 1.3906
upperback 0.592197 1.30258 2.86935
thorax -7.13148 0.634876 2.00373
lowerneck 1.07299 -5.38427 0.875586
upperneck -2.7828 -7.46522 -8.4533
head -1.4549 -3.63268 -2.71303
rclavicle 1.96797e-014 -1.11319e-014
rhumerus 28.8087 10.8067 -58.6139
rradius 130.665
rwrist 6.70837
rhand -35.1744 -34.2716
rfingers 7.12502
rthumb -8.31307 -64.0881
lclavicle 1.96797e-014 -1.11319e-014
lhumerus -53.4746 -25.099 105.633
lradius 112.337
lwrist -2.40249
lhand -11.4942 -34.242
lfingers 7.12502
lthumb 14.5443 -4.77187
rfemur 0 0 0
rtibia 0
rfoot 0 0
rtoes 0
lfemur -6.83943 0.0764585 -16.4536
ltibia 23.9483
lfoot -23.5231 15.8613
ltoes -54.851
1077
root -0.53915 18.7961 5.75709 2.4894 -8.18254 -1.61224
lowerback 13.7703 0.607864 1.38966
upperback 0.552416 1.23166 2.86579
thorax -7.18692 0.600284 2.01457
lowerneck 0.948025 -5.37561 0.707986
upperneck -2.68477 -7.44162 -8.30567
head -1.38538 -3.62679 -2.63869
rclavicle -3.37934e-015 8.74653e-015
rhumerus 28.9183 10.5225 -58.5461
rradius 130.67
rwrist 6.57057
rhand -36.2129 -32.7102
rfingers 7.12502
rthumb -9.31522 -62.4844
lclavicle -3.37934e-015 8.74653e-015
lhumerus -53.5105 -25.0686 105.657
lradius 112.335
lwrist -2.44567
lhand -11.5119 -34.4749
lfingers 7.12502
lthumb 14.5273 -5.00355
rfemur 0 0 0
rtibia 0
rfoot 0 0
rtoes 0
lfemur -6.79456 0.124325 -16.4641
ltibia 23.9242
lfoot -23.6307 15.9645
ltoes -54.8094
1078
root -0.538232 18.7961 5.76678 2.52494 -8.3846 -1.61221
lowerback 13.7568 0.558087 1.40905
upperback 0.523274 1.16852 2.85727
thorax -7.20831 0.568754 2.00721
lowerneck 0.922808 -5.37528 0.698408
upperneck -2.73706 -7.44531 -8.30558
head -1.39753 -3.62788 -2.6371
rclavicle -2.52457e-014 9.54166e-015
rhumerus 28.9941 10.367 -58.4452
rradius 130.683
rwrist 6.38823
rhand -36.0162 -33.4878
rfingers 7.12502
rthumb -9.12544 -63.2703
lclavicle -2.52457e-014 9.54166e-015
lhumerus -53.4873 -25.1123 105.662
lradius 112.323
lwrist -2.44131
lhand -11.4192 -34.587
lfingers 7.12502
lthumb 14.6167 -5.12206
rfemur 0 0 0
rtibia 0
rfoot 0 0
rtoes 0
lfemur -6.74965 0.079686 -16.4946
ltibia 23.9049
lfoot -23.7737 16.1134
ltoes -54.6966
1079
root -0.536871 18.7957 5.7783 2.56276 -8.58798 -1.62745
lowerback 13.7139 0.516619 1.46591
upperback 0.49944 1.12002 2.83428
thorax -7.20683 0.542833 1.96034
lowerneck 0.974545 -5.41423 0.837819
upperneck -2.90304 -7.51282 -8.39666
head -1.47429 -3.65636 -2.68786
rclavicle -2.34566e-014 -1.59028e-014
rhumerus 29.0125 10.327 -58.3857
rradius 130.675
rwrist 6.41418
rhand -36.0687 -33.5407
rfingers 7.12502
rthumb -9.17607 -63.3211
lclavicle -2.34566e-014 -1.59028e-014
lhumerus -53.4418 -25.1994 105.643
lradius 112.282
lwrist -2.45752
lhand -11.3391 -34.62
lfingers 7.12502
lthumb 14.6938 -5.16073
rfemur 0 0 0
rtibia 0
rfoot 0 0
rtoes 0
lfemur -6.69508 0.0851733 -16.5066
ltibia 23.8858
lfoot -23.9146 16.2096
ltoes -54.5776
1080
root -0.537321 18.7962 5.78853 2.58714 -8.74906 -1.63046
lowerback 13.7155 0.457185 1.49769
upperback 0.47178 1.04557 2.81382
thorax -7.23451 0.505135 1.93541
lowerneck 1.01037 -5.45339 0.957003
upperneck -3.066 -7.57986 -8.46871
head -1.5458 -3.68513 -2.72925
rclavicle -8.34896e-015 8.74653e-015
rhumerus 29.0908 10.2911 -58.3738
rradius 130.671
rwrist 6.47282
rhand -35.8456 -33.4913
rfingers 7.12502
rthumb -8.96078 -63.281
lclavicle -8.34896e-015 8.74653e-015
lhumerus -53.4202 -25.2256 105.603
lradius 112.283
lwrist -2.51249
lhand -11.3607 -34.5279
lfingers 7.12502
lthumb 14.673 -5.06705
rfemur 0 0 0
rtibia 0
rfoot 0 0
rtoes 0
lfemur -6.64863 0.225384 -16.507
ltibia 23.8695
lfoot -23.9709 16.1849
ltoes -54.5228
1081
root -0.539212 18.7962 5.79753 2.61547 -8.89453 -1.62521
lowerback 13.7189 0.399744 1.46597
upperback 0.448462 0.966185 2.8264
thorax -7.26026 0.467824 1.98267
lowerneck 1.17596 -5.4214 0.92862
upperneck -3.34804 -7.56072 -8.43094
head -1.66218 -3.66437 -2.7053
rclavicle -6.55989e-015 -2.3059e-014
rhumerus 29.2261 10.2483 -58.3094
rradius 130.685
rwrist 6.35762
rhand -35.5759 -33.693
rfingers 7.12502
rthumb -8.7006 -63.4937
lclavicle -6.55989e-015 -2.3059e-014
lhumerus -53.434 -25.1934 105.637
lradius 112.336
lwrist -2.54739
lhand -11.3649 -34.3294
lfingers 7.12502
lthumb 14.6689 -4.86831
rfemur 0 0 0
rtibia 0
rfoot 0 0
rtoes 0
lfemur -6.62166 0.36103 -16.5098
ltibia 23.861
lfoot -24.0026 16.1895
ltoes -54.5215
1082
root -0.541008 18.7956 5.80785 2.67273 -9.07291 -1.66835
lowerback 14.0638 0.372604 1.65389
upperback 0.14185 0.977056 2.74616
thorax -7.77963 0.464371 1.79091
lowerneck 1.63123 -5.36817 0.739785
upperneck -3.49537 -7.50094 -8.19391
head -1.76677 -3.62083 -2.58075
rclavicle -3.68746e-014 -2.46493e-014
rhumerus 28.7905 10.3036 -58.3602
rradius 130.78
rwrist 6.3186
rhand -35.5538 -33.7148
rfingers 7.12502
rthumb -8.67927 -63.5164
lclavicle -3.68746e-014 -2.46493e-014
lhumerus -53.981 -25.2445 105.873
lradius 112.39
lwrist -2.60181
lhand -11.4234 -34.3366
lfingers 7.12502
lthumb 14.6126 -4.87145
rfemur 0 0 0
rtibia 0
rfoot 0 0
rtoes 0
lfemur -6.60728 0.421211 -16.4732
ltibia 23.8556
lfoot -24.0882 16.2775
ltoes -54.5101
1083
root -0.541669 18.795 5.81911 2.72576 -9.23833 -1.7213
lowerback 13.9756 0.329782 1.7212
upperback 0.123675 0.929578 2.75893
thorax -7.74766 0.439126 1.77628
lowerneck 1.76155 -5.32604 0.464969
upperneck -3.68082 -7.45671 -7.94092
head -1.82252 -3.59137 -2.4444
rclavicle 9.93923e-015 -3.97569e-015
rhumerus 28.8427 10.2474 -58.3016
rradius 130.845
rwrist 6.24497
rhand -35.558 -33.7957
rfingers 7.12502
rthumb -8.68329 -63.5972
lclavicle 9.93923e-015 -3.97569e-015
lhumerus -53.9383 -25.2664 105.917
lradius 112.349
lwrist -2.59593
lhand -11.4299 -34.4543
lfingers 7.12502
lthumb 14.6063 -4.98863
rfemur 0 0 0
rtibia 0
rfoot 0 0
rtoes 0
lfemur -6.58337 0.440987 -16.4341
ltibia 23.8441
lfoot -24.1982 16.3569
ltoes -54.4796
